<?xml version="1.0" standalone="no"?>
<!DOCTYPE svg PUBLIC "-//W3C//DTD SVG 20010904//EN"
 "http://www.w3.org/TR/2001/REC-SVG-20010904/DTD/svg10.dtd">
<svg version="1.0" xmlns="http://www.w3.org/2000/svg"
 width="692.000000pt" height="692.000000pt" viewBox="0 0 692.000000 692.000000"
 preserveAspectRatio="xMidYMid meet">
<metadata>
Created by potrace 1.15, written by Peter Selinger 2001-2017
</metadata>
<g transform="translate(0.000000,692.000000) scale(0.100000,-0.100000)"
fill="#000000" stroke="none">
<path d="M1677 5200 c-410 -5 -429 -6 -443 -24 -12 -17 -14 -166 -14 -971 l0
-952 23 -21 c22 -21 33 -22 256 -24 l233 -3 0 -142 0 -143 1969 0 1969 0 0
1000 c0 823 -2 1006 -14 1033 -16 39 -66 84 -104 94 -15 4 -759 7 -1654 7
l-1628 1 0 51 c0 37 -5 56 -19 68 -18 16 -20 14 -64 -46 l-45 -63 34 -3 34 -3
0 -255 0 -255 30 16 30 15 2 193 3 192 40 -4 c22 -2 742 -6 1600 -10 1497 -6
1561 -7 1587 -25 15 -10 37 -33 48 -51 20 -32 20 -47 20 -934 l0 -901 -1864 0
-1864 0 -4 68 c-6 111 -23 102 194 102 187 0 189 0 213 25 l25 24 0 334 c0
310 -1 335 -17 341 -10 3 -24 9 -30 12 -10 4 -13 -51 -13 -260 l0 -266 -465 0
-465 0 0 820 0 820 400 0 401 0 19 46 c29 67 34 91 18 95 -7 2 -206 2 -441 -1z"/>
<path d="M3030 4562 l-55 -27 -5 -118 c-5 -107 -3 -117 13 -117 12 0 17 8 17
31 0 16 5 50 11 75 9 36 15 44 28 38 29 -13 219 -17 252 -5 18 6 36 8 41 3 5
-5 11 -38 15 -75 5 -56 9 -67 24 -67 17 0 19 9 19 108 0 59 -4 112 -8 118 -4
5 -31 22 -59 37 -46 24 -64 27 -146 27 -81 0 -100 -3 -147 -28z"/>
<path d="M505 3723 c-11 -10 -15 -26 -12 -42 5 -24 -19 -49 -244 -256 l-249
-229 0 -715 0 -714 23 20 c12 11 191 175 397 364 813 747 792 729 809 720 20
-11 56 2 65 24 7 20 -14 63 -44 90 -12 11 -86 90 -164 175 -358 393 -490 537
-513 558 -29 26 -46 28 -68 5z"/>
<path d="M3237 1500 c-5 -20 -1 -20 465 -20 442 0 469 1 466 18 -3 16 -34 17
-464 20 -455 2 -462 2 -467 -18z"/>
<path d="M2130 1294 c0 -2 15 -11 33 -21 30 -17 109 -18 1340 -21 784 -2 1307
1 1307 6 0 5 -6 14 -12 20 -9 7 -453 12 -1340 15 -731 2 -1328 3 -1328 1z"/>
<path d="M6325 768 c-110 -99 -243 -219 -295 -267 -53 -47 -131 -117 -173
-155 -53 -47 -77 -76 -77 -91 0 -29 22 -47 52 -43 18 2 43 -19 121 -104 l99
-108 434 0 434 0 0 245 0 245 -54 57 c-217 234 -286 318 -281 342 7 26 -19 61
-44 61 -9 -1 -106 -82 -216 -182z"/>
</g>
</svg>
